PathFileType	4	(X/Y/Z)	C:\Users\Basilio\Documents\Thesis Gigler\squatting_fais\c3dfiles\039\SLS_pre_back2\markers_experimental.trc
DataRate	CameraRate	NumFrames	NumMarkers	Units	OrigDataRate	OrigDataStartFrame	OrigNumFrames
200.000000	200.000000	4	63	mm	200.000000	842	1684
Frame#	Time	FHD			LBHD			RBHD			C7			T10			LSHO			LUUPA			LMUPA			LDUPA			LLEP			LMEP			LRAD			LUL			LRFIN			RSHO			RUPA1			RMUPA			RDUPA			RLEP			RMEP			RRAD			RUL			RUFIN			LASI			RASI			USACR			LSACR			RSACR			LTHI1			LTHI2			LTHI3			LTHI4			LMFC			LTIB1			LTIB2			LTIB3			LTIB4			LLMAL			LMMAL			LHEE			LMT1			LMT2			LMT5			RTHI			RTHI2			RTHI3			RTHI4			RLFC			RMFC			RTIB1			RTIB2			RTIB3			RTIB4			RLMAL			RMMAL			RHEE			RMT1			RMT2			RMT5			LLFC			CLAV			*61			*62			
		X1	Y1	Z1	X2	Y2	Z2	X3	Y3	Z3	X4	Y4	Z4	X5	Y5	Z5	X6	Y6	Z6	X7	Y7	Z7	X8	Y8	Z8	X9	Y9	Z9	X10	Y10	Z10	X11	Y11	Z11	X12	Y12	Z12	X13	Y13	Z13	X14	Y14	Z14	X15	Y15	Z15	X16	Y16	Z16	X17	Y17	Z17	X18	Y18	Z18	X19	Y19	Z19	X20	Y20	Z20	X21	Y21	Z21	X22	Y22	Z22	X23	Y23	Z23	X24	Y24	Z24	X25	Y25	Z25	X26	Y26	Z26	X27	Y27	Z27	X28	Y28	Z28	X29	Y29	Z29	X30	Y30	Z30	X31	Y31	Z31	X32	Y32	Z32	X33	Y33	Z33	X34	Y34	Z34	X35	Y35	Z35	X36	Y36	Z36	X37	Y37	Z37	X38	Y38	Z38	X39	Y39	Z39	X40	Y40	Z40	X41	Y41	Z41	X42	Y42	Z42	X43	Y43	Z43	X44	Y44	Z44	X45	Y45	Z45	X46	Y46	Z46	X47	Y47	Z47	X48	Y48	Z48	X49	Y49	Z49	X50	Y50	Z50	X51	Y51	Z51	X52	Y52	Z52	X53	Y53	Z53	X54	Y54	Z54	X55	Y55	Z55	X56	Y56	Z56	X57	Y57	Z57	X58	Y58	Z58	X59	Y59	Z59	X60	Y60	Z60	X61	Y61	Z61	X62	Y62	Z62	X63	Y63	Z63	

843	4.21	-125.0786514282227	1488.374755859375	-654.1188354492189	-288.6348571777344	1479.78076171875	-771.2452392578127	-257.1224670410157	1479.391845703125	-632.9305419921876	-349.7525939941407	1329.67919921875	-717.8706665039064	-459.7391357421876	1059.59033203125	-773.350280761719	-271.8431701660157	1334.287109375	-877.7051391601565	-117.2918777465821	1284.357177734375	-997.2932739257815	-89.90477752685548	1311.96875	-965.3599243164065	-47.44201278686524	1285.91064453125	-998.7033691406252	20.49492835998536	1285.748901367188	-994.930358886719	17.34540176391602	1213.400024414063	-966.1760253906252	299.2972412109376	1283.45068359375	-902.1916503906252	301.3679199218751	1294.379028320313	-977.2332763671877	375.6524658203126	1323.87060546875	-890.7254028320315	-240.5096282958985	1301.295532226563	-559.7318725585939	-91.90600585937501	1211.810302734375	-466.3728027343751	-62.3100929260254	1246.851196289063	-486.7860107421876	-21.91228866577149	1206.281372070313	-466.6365051269532	41.96764755249024	1218.292358398438	-475.5844726562501	43.95194244384766	1155.9375	-522.4727783203126	329.2811279296876	1262.026489257813	-563.9467773437501	332.4825439453126	1244.974609375	-489.7117614746095	410.6607666015626	1302.624145507813	-557.0386352539064	-383.1480712890626	839.377624511719	-891.742614746094	-378.2371215820313	851.820251464844	-669.4942016601564	-538.6411743164064	943.843200683594	-780.729675292969	-553.6656494140626	912.960388183594	-805.696960449219	-553.5183715820314	916.5314941406252	-746.8811035156251	-394.717987060547	603.1765136718751	-1007.179504394531	-337.2422790527344	543.6232910156251	-1031.065063476563	-291.4215393066407	555.3589477539064	-1022.251586914063	-345.2628173828126	481.421600341797	-1025.213500976563	-282.9722900390626	351.7141723632813	-928.392761230469	-398.0880432128907	299.0871582031251	-1002.640625	-457.6814270019532	365.1289367675782	-1021.794067382813	-452.8290100097657	322.8377990722657	-1014.838989257813	-519.2850952148439	302.8530578613282	-961.757019042969	-702.4354858398439	337.8494262695313	-948.1958618164065	-671.1289062500001	312.0622863769532	-870.7780761718752	-718.8711547851564	405.1475524902345	-896.3765869140627	-756.2990722656251	177.8077545166016	-856.224304199219	-779.1744384765627	183.2792358398438	-893.4213867187502	-820.003601074219	231.781478881836	-923.6723632812502	-309.9726867675782	645.4807128906251	-594.7374877929689	-243.9399108886719	633.8233032226564	-592.6083374023439	-221.6192932128907	658.4934082031251	-599.4018554687501	-208.853500366211	556.7712402343751	-601.1861572265626	-162.0780029296875	453.348602294922	-641.0878906250001	-135.0274505615235	470.7570800781251	-749.1532592773439	-196.9816894531251	268.7909545898438	-704.4323730468751	-300.0072021484376	239.3043060302735	-696.0242309570314	-261.0851745605469	216.3650665283204	-707.5532226562501	-266.5648193359376	173.3580322265625	-750.3483276367189	-363.0815734863282	112.2092895507813	-739.3844604492189	-334.3984375000001	136.9109344482422	-822.500915527344	-441.0299072265626	98.51502227783206	-793.297302246094	-215.1333923339844	54.36049652099611	-806.3781738281252	-219.0413665771485	55.51412963867189	-760.4906616210939	-274.6913452148438	35.98107147216798	-709.7223510742189	-315.0617065429688	404.7258911132814	-1030.70263671875	nan	nan	nan	nan	nan	nan	nan	nan	nan	
844	4.215	-124.9683151245117	1487.9853515625	-654.1818847656251	-288.5225219726563	1479.233276367188	-771.2595214843752	-257.0085449218751	1479.001098632813	-633.0870971679689	-349.6470336914063	1329.322265625	-718.0909423828126	-459.8000793457032	1059.275268554688	-773.4420166015627	-271.4471130371094	1333.780151367188	-877.818054199219	-117.2513504028321	1283.97900390625	-997.3901367187502	-89.7952346801758	1311.563598632813	-965.4752197265627	-47.35522460937501	1285.488037109375	-998.7973632812502	20.6323413848877	1285.394775390625	-995.0825805664065	17.40785598754883	1212.975952148438	-966.343200683594	299.3122253417969	1282.88232421875	-902.390808105469	301.3451843261719	1293.975708007813	-977.4415283203127	375.6776123046876	1323.44580078125	-890.9982910156252	-240.5665435791016	1300.864624023438	-559.8966674804689	-91.86569213867189	1211.461669921875	-466.5708923339845	-62.22275924682619	1246.450927734375	-486.8526306152345	-22.13269233703614	1205.7861328125	-466.9269409179689	42.05622100830079	1217.766967773438	-475.7391967773439	43.98993301391602	1155.25	-522.6597290039064	329.1977539062501	1261.414184570313	-564.1543579101564	332.4813232421876	1244.540161132813	-489.8265686035157	410.8029785156251	1302.18310546875	-557.0961914062501	-383.3045043945313	839.0330810546877	-891.755554199219	-378.5050048828126	851.4982910156252	-669.5894775390626	-538.7686767578126	943.6250610351565	-780.8506469726565	-553.8828125000001	912.7493896484377	-805.7273559570315	-553.6489257812501	916.252380371094	-746.9863281250001	-394.9654541015626	602.7307739257814	-1007.1337890625	-337.4497070312501	543.2874145507814	-1031.032592773438	-291.6581115722657	554.9754638671876	-1022.232604980469	-345.4068603515626	481.0686645507814	-1025.226196289063	-283.1416015625001	351.3721008300782	-928.4077148437502	-398.2871093750001	298.7430114746094	-1002.464233398438	-457.8703002929689	364.9658813476563	-1021.714233398438	-453.2024536132814	322.3579101562501	-1014.851501464844	-519.5324707031251	302.7178955078126	-961.7055664062502	-702.6392211914064	338.0799560546876	-948.096618652344	-670.8894653320314	312.6516113281251	-869.8047485351565	-718.8959350585939	405.4398193359376	-896.2344360351565	-756.7554931640626	177.9294128417969	-855.9827880859377	-780.1555786132815	182.7992553710938	-893.4016113281252	-820.3071289062502	232.1162414550782	-923.5853271484377	-310.0802307128907	645.3831176757814	-594.7864379882814	-243.9847259521485	633.7595825195314	-592.6836547851564	-221.6979217529297	658.4140014648439	-599.5057373046876	-208.8535766601563	556.7346191406251	-601.2508544921876	-162.0766143798828	453.3506164550782	-641.1644287109376	-134.9952087402344	470.7902832031251	-749.2902221679689	-196.9694061279297	268.7865600585938	-704.4730224609376	-299.9204711914063	239.336166381836	-696.0626220703126	-261.0706481933594	216.3157806396485	-707.6489257812501	-266.5536193847657	173.3304443359375	-750.3608398437501	-363.0811767578126	112.2048416137696	-739.3695068359376	-334.3859558105469	136.9109649658203	-822.464782714844	-441.0333862304689	98.50854492187503	-793.302917480469	-215.1448516845704	54.36496734619142	-806.3882446289065	-219.0429992675782	55.50027084350587	-760.5076904296876	-274.7167053222657	35.9852638244629	-709.7114257812501	-315.1628417968751	404.495086669922	-1030.703002929688	nan	nan	nan	nan	nan	nan	nan	nan	nan	
845	4.22	-124.9601745605469	1487.643676757813	-654.3344116210939	-288.4823913574219	1478.874145507813	-771.3929443359377	-256.9527282714844	1478.699340820313	-633.2758178710939	-349.5576782226563	1328.944091796875	-718.2710571289064	-459.8725585937501	1058.961181640625	-773.601501464844	-271.4866333007813	1333.380493164063	-877.8569335937502	-117.2155532836914	1283.658203125	-997.4974365234377	-89.7205276489258	1311.054809570313	-965.573669433594	-47.33698654174805	1285.034790039063	-998.889343261719	20.6556568145752	1285.0146484375	-995.2512207031252	17.46683502197266	1212.755126953125	-966.2702636718752	299.3241882324219	1282.336791992188	-902.6179809570315	301.4024353027344	1293.55078125	-977.6260375976565	375.6831054687501	1323.222900390625	-891.3458251953127	-240.2756042480469	1300.440551757813	-560.0360717773439	-91.42895507812501	1211.256225585938	-466.3634338378907	-62.19126129150392	1246.0302734375	-487.0176391601564	-22.07198905944825	1205.33544921875	-467.0589294433595	42.12214660644532	1217.20068359375	-475.8926696777345	44.06217956542969	1154.538940429688	-522.9041137695314	329.3187866210938	1260.9248046875	-564.4027709960939	332.3081665039063	1243.662353515625	-490.2958374023439	410.704803466797	1301.565307617188	-557.4614868164064	-383.5304565429688	838.6140747070315	-891.8457031250002	-378.7029113769532	851.142272949219	-669.7539062500001	-539.1142578125001	943.6229248046877	-780.8889770507815	-554.0403442382814	912.3759765625002	-805.8756103515627	-553.6309814453126	915.8765258789065	-747.0430297851564	-395.1632690429689	602.3245239257814	-1007.198913574219	-337.5609436035157	542.7900390625001	-1030.988403320313	-291.9347534179688	554.5241699218751	-1022.288940429688	-345.6265869140626	480.5640563964845	-1025.27685546875	-283.2561035156251	351.1334228515626	-928.3477172851565	-398.600311279297	298.6349792480469	-1002.545593261719	-457.9817504882814	364.7852783203126	-1021.619689941406	-453.3686828613282	322.1915588378907	-1014.753845214844	-519.7884521484376	302.5428466796876	-961.8802490234377	-702.8474731445314	338.2928161621094	-948.0325927734377	-671.5376586914064	312.2243041992188	-870.3011474609377	-718.9139404296876	405.6270141601564	-896.0708007812502	-757.2011108398439	178.0887145996094	-856.1754150390627	-780.2397460937502	183.7994232177735	-893.2325439453127	-820.5952758789065	232.4558410644532	-923.5188598632815	-310.1700439453126	645.2357788085939	-594.8761596679689	-244.1253662109376	633.6223144531251	-592.8109130859376	-221.7518920898438	658.3718872070314	-599.5901489257814	-208.8759002685547	556.7526855468751	-601.3267211914064	-162.0293426513672	453.3712463378907	-641.2124633789064	-134.9620361328125	470.8021850585939	-749.3865356445314	-196.9376068115235	268.7903442382813	-704.5256958007814	-299.9454040527344	239.3227844238282	-696.0314941406251	-261.0636596679688	216.3168487548829	-707.6489868164064	-266.4777221679688	173.3558197021485	-750.3822021484376	-363.0923461914063	112.2158203125	-739.3654174804689	-334.4733276367188	136.8957977294922	-822.4562988281252	-441.0600585937501	98.47772979736331	-793.3122558593752	-215.1863098144532	54.37386322021486	-806.4331665039065	-219.0475769042969	55.48544692993165	-760.5278320312501	-274.6903381347657	36.02146911621094	-709.7177124023439	-315.2546691894532	404.1460571289064	-1030.736938476563	nan	nan	nan	nan	nan	nan	nan	nan	nan	
846	4.225	-124.9673004150391	1487.228393554688	-654.4802856445314	-288.4366149902344	1478.531616210938	-771.617614746094	-256.8702697753907	1478.134033203125	-633.4942626953126	-349.4657897949219	1328.562622070313	-718.2976684570314	-459.8450012207032	1058.692260742188	-773.7039794921877	-271.3429260253907	1332.993408203125	-878.0397949218752	-117.1036529541016	1283.286010742188	-997.627624511719	-89.65279388427736	1310.65283203125	-965.7232666015627	-47.26499557495118	1284.549682617188	-998.954772949219	20.71865463256836	1284.532104492188	-995.3557128906252	17.56013107299805	1212.3603515625	-966.3867187500002	299.4782409667969	1281.749877929688	-902.7754516601565	301.5511779785157	1293.173461914063	-977.8546142578127	375.8427734375001	1322.655517578125	-891.619323730469	-239.8235626220704	1299.890869140625	-560.0441284179689	-91.45365142822267	1210.751831054688	-466.427215576172	-62.07170486450197	1245.48876953125	-487.1109619140626	-22.08009719848633	1204.932983398438	-467.250457763672	42.06123733520509	1216.710205078125	-475.9963989257814	44.13108444213868	1154.16552734375	-522.9930419921876	329.4114685058594	1260.451049804688	-564.5584106445314	332.4316711425782	1242.761474609375	-490.5272216796876	410.7582092285157	1301.099853515625	-557.6902465820314	-383.7699890136719	838.1240234375002	-891.893981933594	-378.9227294921876	850.8571777343752	-669.9336547851564	-538.6582641601564	942.5349121093752	-781.1163330078127	-554.2793579101564	912.0117187500002	-805.9541625976565	-553.8903808593751	915.7619628906252	-747.1898803710939	-395.4178771972657	601.9452514648439	-1007.202453613281	-337.7547912597657	542.3084716796876	-1031.053955078125	-292.0709533691407	554.1650390625001	-1022.377319335938	-345.8650207519532	480.0366516113282	-1025.292358398438	-283.4639282226563	350.8408813476563	-928.3103027343752	-398.9176635742189	298.5844421386719	-1002.455200195313	-458.1820373535157	364.6186523437501	-1021.581726074219	-453.5666809082032	322.0081481933594	-1014.703918457031	-520.0687866210939	302.4569702148438	-961.7611083984377	-702.8937988281251	337.8547668457032	-948.0511474609377	-671.8244628906251	312.3649291992188	-870.3925781250002	-718.9624023437501	405.7528381347657	-895.9284667968752	-757.6987915039064	178.4364929199219	-856.1636962890627	-780.7548828125002	183.906982421875	-893.2987060546877	-820.9617309570315	232.8153076171876	-923.4863281250002	-310.3055419921876	645.0596923828126	-594.9011840820314	-244.2221984863282	633.5516967773439	-592.8778076171876	-221.930892944336	658.2504882812501	-599.7634887695314	-208.9067535400391	556.6459350585939	-601.4418945312501	-162.0368347167969	453.5355529785157	-641.4083251953126	-134.9037475585938	470.7392578125001	-749.4925537109376	-196.9208984375001	268.7796325683594	-704.6063232421876	-299.9026794433594	239.3435668945313	-696.0327148437501	-261.0292663574219	216.310775756836	-707.7131958007814	-266.4696655273438	173.371826171875	-750.3645629882814	-363.0745239257813	112.1898422241211	-739.3876342773439	-334.4607238769532	136.8955993652344	-822.5292968750002	-441.0452270507814	98.50846862792972	-793.2847290039065	-215.1591033935547	54.35261917114259	-806.4016113281252	-219.0451812744141	55.50581359863283	-760.5082397460939	-274.6492614746094	36.01781463623048	-709.7251586914064	-315.5093383789063	403.706756591797	-1030.711059570313	nan	nan	nan	nan	nan	nan	nan	nan	nan	
